<svg width="135" height="68" viewBox="0 0 135 68" fill="none" xmlns="http://www.w3.org/2000/svg">
<path d="M24 48C24 34.7452 34.7452 24 48 24H135V68H24V48Z" fill="#0A0B0A"/>
<path d="M24 68V44C24 57.2548 13.2548 68 0 68H24Z" fill="#0A0B0A"/>
<path d="M135 24V0C135 13.2548 124.255 24 111 24H135Z" fill="#0A0B0A"/>
<path d="M57.328 56.84H57.408C57.4827 56.84 57.552 56.808 57.616 56.744C57.68 56.68 57.7333 56.6053 57.776 56.52C57.8293 56.4347 57.8667 56.344 57.888 56.248C57.9093 56.1413 57.92 56.0453 57.92 55.96V47.544L53.792 57.176L49.872 48.04V55.96C49.872 56.0453 49.8827 56.1413 49.904 56.248C49.9253 56.344 49.9573 56.4347 50 56.52C50.0533 56.6053 50.112 56.68 50.176 56.744C50.24 56.808 50.3147 56.84 50.4 56.84H50.48V57H48.736V56.84H48.816C48.8907 56.84 48.96 56.808 49.024 56.744C49.088 56.68 49.1413 56.6053 49.184 56.52C49.2267 56.4347 49.2587 56.344 49.28 56.248C49.3013 56.1413 49.312 56.0453 49.312 55.96V47.432C49.312 47.3573 49.3013 47.272 49.28 47.176C49.2587 47.08 49.2267 46.9893 49.184 46.904C49.1413 46.8187 49.088 46.7493 49.024 46.696C48.96 46.632 48.8907 46.6 48.816 46.6H48.736V46.44H50.368L54.08 55.192L57.792 46.44H59.6V46.6H59.52C59.4347 46.6 59.36 46.632 59.296 46.696C59.232 46.7493 59.1733 46.8187 59.12 46.904C59.0773 46.9893 59.0453 47.08 59.024 47.176C59.0027 47.272 58.992 47.3573 58.992 47.432V55.96C58.992 56.0453 59.0027 56.1413 59.024 56.248C59.0453 56.344 59.0773 56.4347 59.12 56.52C59.1733 56.6053 59.232 56.68 59.296 56.744C59.36 56.808 59.4347 56.84 59.52 56.84H59.6V57H57.328V56.84ZM62.1575 56.84H62.2375C62.3228 56.84 62.3975 56.8133 62.4615 56.76C62.5255 56.696 62.5788 56.6213 62.6215 56.536C62.6748 56.4507 62.7122 56.36 62.7335 56.264C62.7655 56.168 62.7815 56.0773 62.7815 55.992V47.432C62.7815 47.3573 62.7655 47.272 62.7335 47.176C62.7122 47.08 62.6748 46.9893 62.6215 46.904C62.5788 46.8187 62.5255 46.7493 62.4615 46.696C62.3975 46.632 62.3228 46.6 62.2375 46.6H62.1575V46.44H68.3175V47.928H68.1575C68.1362 47.6827 68.0402 47.4693 67.8695 47.288C67.6988 47.096 67.4322 47 67.0695 47H63.8535V51.048H66.5095C66.7548 51.048 66.9575 50.9733 67.1175 50.824C67.2882 50.6747 67.3735 50.4987 67.3735 50.296H67.5335V52.296H67.3735C67.3735 52.104 67.2935 51.9387 67.1335 51.8C66.9735 51.6613 66.7655 51.592 66.5095 51.592H63.8535V56.44H67.3575C67.5602 56.44 67.7362 56.392 67.8855 56.296C68.0348 56.2 68.1575 56.088 68.2535 55.96C68.3602 55.8213 68.4348 55.6773 68.4775 55.528C68.5308 55.368 68.5575 55.2347 68.5575 55.128H68.7175V57H62.1575V56.84ZM72.6031 56.84H72.6831V57H70.9071V56.84H70.9871C71.0618 56.84 71.1311 56.808 71.1951 56.744C71.2698 56.68 71.3285 56.6053 71.3711 56.52C71.4138 56.4347 71.4458 56.344 71.4671 56.248C71.4991 56.1413 71.5151 56.0453 71.5151 55.96V47.432C71.5151 47.3573 71.5045 47.272 71.4831 47.176C71.4725 47.08 71.4458 46.9893 71.4031 46.904C71.3605 46.8187 71.3018 46.7493 71.2271 46.696C71.1525 46.632 71.0618 46.6 70.9551 46.6H70.8751V46.44H72.4911L78.2991 55.592V47.432C78.2991 47.3573 78.2831 47.272 78.2511 47.176C78.2298 47.08 78.1925 46.9893 78.1391 46.904C78.0965 46.8187 78.0431 46.7493 77.9791 46.696C77.9151 46.632 77.8405 46.6 77.7551 46.6H77.6751V46.44H79.4671V46.6H79.3871C79.3018 46.6 79.2271 46.632 79.1631 46.696C79.0991 46.7493 79.0405 46.8187 78.9871 46.904C78.9445 46.9893 78.9125 47.08 78.8911 47.176C78.8698 47.272 78.8591 47.3573 78.8591 47.432V57H77.8671L72.0751 47.816V55.96C72.0751 56.0453 72.0858 56.1413 72.1071 56.248C72.1285 56.344 72.1605 56.4347 72.2031 56.52C72.2565 56.6053 72.3151 56.68 72.3791 56.744C72.4431 56.808 72.5178 56.84 72.6031 56.84ZM81.97 46.44H84.242V46.6H84.162C84.0767 46.6 84.002 46.632 83.938 46.696C83.874 46.7493 83.8153 46.8187 83.762 46.904C83.7193 46.9893 83.6873 47.08 83.666 47.176C83.6447 47.272 83.634 47.3573 83.634 47.432V53.752C83.634 54.168 83.6767 54.552 83.762 54.904C83.8473 55.256 83.9913 55.56 84.194 55.816C84.3967 56.072 84.6633 56.2747 84.994 56.424C85.3247 56.5627 85.73 56.632 86.21 56.632C86.7433 56.632 87.17 56.5467 87.49 56.376C87.81 56.2053 88.0553 55.9867 88.226 55.72C88.3967 55.4427 88.5087 55.1333 88.562 54.792C88.6153 54.4507 88.642 54.1147 88.642 53.784V47.432C88.642 47.3573 88.6313 47.272 88.61 47.176C88.5887 47.08 88.5513 46.9893 88.498 46.904C88.4553 46.8187 88.402 46.7493 88.338 46.696C88.274 46.632 88.2047 46.6 88.13 46.6H88.05V46.44H89.794V46.6H89.714C89.6287 46.6 89.554 46.632 89.49 46.696C89.4367 46.7493 89.3833 46.8187 89.33 46.904C89.2873 46.9893 89.2553 47.08 89.234 47.176C89.2127 47.272 89.202 47.3573 89.202 47.432V53.736C89.202 54.4293 89.1167 55 88.946 55.448C88.7753 55.8853 88.5407 56.232 88.242 56.488C87.9433 56.744 87.5913 56.92 87.186 57.016C86.7913 57.112 86.37 57.16 85.922 57.16C85.442 57.16 84.994 57.1067 84.578 57C84.1727 56.904 83.8207 56.728 83.522 56.472C83.2233 56.216 82.9887 55.8693 82.818 55.432C82.6473 54.984 82.562 54.424 82.562 53.752V47.432C82.562 47.3573 82.5513 47.272 82.53 47.176C82.5087 47.08 82.4713 46.9893 82.418 46.904C82.3753 46.8187 82.322 46.7493 82.258 46.696C82.194 46.632 82.1247 46.6 82.05 46.6H81.97V46.44Z" fill="#EFE7D2"/>
<rect x="103" y="36" width="32" height="32" rx="16" fill="#181818" fill-opacity="0.5"/>
<rect x="103.5" y="36.5" width="31" height="31" rx="15.5" stroke="#EFE7D2" stroke-opacity="0.15"/>
<path d="M124.762 52.2625L120.262 56.7625C120.228 56.797 120.187 56.8243 120.142 56.843C120.097 56.8616 120.049 56.8712 120 56.8712C119.951 56.8712 119.903 56.8616 119.858 56.843C119.813 56.8243 119.772 56.797 119.738 56.7625C119.703 56.728 119.676 56.6871 119.657 56.6421C119.638 56.597 119.629 56.5488 119.629 56.5C119.629 56.4513 119.638 56.403 119.657 56.358C119.676 56.3129 119.703 56.272 119.738 56.2375L123.594 52.375H113.5C113.401 52.375 113.305 52.3355 113.235 52.2652C113.165 52.1949 113.125 52.0995 113.125 52C113.125 51.9006 113.165 51.8052 113.235 51.7349C113.305 51.6645 113.401 51.625 113.5 51.625H123.594L119.738 47.7625C119.668 47.6929 119.629 47.5985 119.629 47.5C119.629 47.4016 119.668 47.3071 119.738 47.2375C119.807 47.1679 119.902 47.1288 120 47.1288C120.098 47.1288 120.193 47.1679 120.262 47.2375L124.762 51.7375C124.798 51.7714 124.826 51.8121 124.846 51.8572C124.865 51.9023 124.875 51.9509 124.875 52C124.875 52.0491 124.865 52.0977 124.846 52.1428C124.826 52.1879 124.798 52.2287 124.762 52.2625Z" fill="#EFE7D2"/>
</svg>
