<svg width="224" height="68" viewBox="0 0 224 68" fill="none" xmlns="http://www.w3.org/2000/svg">
<path d="M24 48C24 34.7452 34.7452 24 48 24H224V68H24V48Z" fill="#0A0B0A"/>
<path d="M24 68V44C24 57.2548 13.2548 68 0 68H24Z" fill="#0A0B0A"/>
<path d="M224 24V0C224 13.2548 213.255 24 200 24H224Z" fill="#0A0B0A"/>
<path d="M54.112 46.28C54.944 46.28 55.6907 46.4293 56.352 46.728C57.0133 47.016 57.5733 47.4107 58.032 47.912C58.5013 48.4027 58.8587 48.9787 59.104 49.64C59.36 50.2907 59.488 50.9733 59.488 51.688C59.488 52.488 59.3387 53.224 59.04 53.896C58.752 54.568 58.352 55.144 57.84 55.624C57.328 56.104 56.7307 56.4827 56.048 56.76C55.376 57.0267 54.656 57.16 53.888 57.16C53.0667 57.16 52.3253 57.0107 51.664 56.712C51.0133 56.4133 50.4587 56.0187 50 55.528C49.552 55.0373 49.2053 54.472 48.96 53.832C48.7147 53.192 48.592 52.5253 48.592 51.832C48.592 51.1493 48.7147 50.4773 48.96 49.816C49.2053 49.144 49.5627 48.5467 50.032 48.024C50.512 47.5013 51.0933 47.08 51.776 46.76C52.4587 46.44 53.2373 46.28 54.112 46.28ZM54.096 56.6C54.8107 56.568 55.4347 56.408 55.968 56.12C56.512 55.8213 56.9653 55.448 57.328 55C57.6907 54.5413 57.9573 54.04 58.128 53.496C58.3093 52.952 58.4 52.4133 58.4 51.88C58.4 51.2933 58.2933 50.7013 58.08 50.104C57.8667 49.5067 57.5627 48.968 57.168 48.488C56.7733 47.9973 56.2987 47.6027 55.744 47.304C55.2 46.9947 54.5867 46.84 53.904 46.84C53.2427 46.84 52.6507 46.9893 52.128 47.288C51.6053 47.576 51.1573 47.9493 50.784 48.408C50.4213 48.8667 50.144 49.3787 49.952 49.944C49.76 50.5093 49.664 51.064 49.664 51.608C49.664 52.1947 49.776 52.7867 50 53.384C50.224 53.9707 50.5333 54.504 50.928 54.984C51.3227 55.464 51.7867 55.8533 52.32 56.152C52.864 56.4507 53.456 56.6 54.096 56.6ZM61.8919 46.44H64.1639V46.6H64.0839C63.9985 46.6 63.9239 46.632 63.8599 46.696C63.7959 46.7493 63.7372 46.8187 63.6839 46.904C63.6412 46.9893 63.6092 47.08 63.5879 47.176C63.5665 47.272 63.5559 47.3573 63.5559 47.432V53.752C63.5559 54.168 63.5985 54.552 63.6839 54.904C63.7692 55.256 63.9132 55.56 64.1159 55.816C64.3185 56.072 64.5852 56.2747 64.9159 56.424C65.2465 56.5627 65.6519 56.632 66.1319 56.632C66.6652 56.632 67.0919 56.5467 67.4119 56.376C67.7319 56.2053 67.9772 55.9867 68.1479 55.72C68.3185 55.4427 68.4305 55.1333 68.4839 54.792C68.5372 54.4507 68.5639 54.1147 68.5639 53.784V47.432C68.5639 47.3573 68.5532 47.272 68.5319 47.176C68.5105 47.08 68.4732 46.9893 68.4199 46.904C68.3772 46.8187 68.3239 46.7493 68.2599 46.696C68.1959 46.632 68.1265 46.6 68.0519 46.6H67.9719V46.44H69.7159V46.6H69.6359C69.5505 46.6 69.4759 46.632 69.4119 46.696C69.3585 46.7493 69.3052 46.8187 69.2519 46.904C69.2092 46.9893 69.1772 47.08 69.1559 47.176C69.1345 47.272 69.1239 47.3573 69.1239 47.432V53.736C69.1239 54.4293 69.0385 55 68.8679 55.448C68.6972 55.8853 68.4625 56.232 68.1639 56.488C67.8652 56.744 67.5132 56.92 67.1079 57.016C66.7132 57.112 66.2919 57.16 65.8439 57.16C65.3639 57.16 64.9159 57.1067 64.4999 57C64.0945 56.904 63.7425 56.728 63.4439 56.472C63.1452 56.216 62.9105 55.8693 62.7399 55.432C62.5692 54.984 62.4839 54.424 62.4839 53.752V47.432C62.4839 47.3573 62.4732 47.272 62.4519 47.176C62.4305 47.08 62.3932 46.9893 62.3399 46.904C62.2972 46.8187 62.2439 46.7493 62.1799 46.696C62.1159 46.632 62.0465 46.6 61.9719 46.6H61.8919V46.44ZM74.4116 56.84H74.4916V57H72.2356V56.84H72.3156C72.3903 56.84 72.4596 56.808 72.5236 56.744C72.5876 56.68 72.641 56.6053 72.6836 56.52C72.737 56.4347 72.7743 56.344 72.7956 56.248C72.817 56.1413 72.8276 56.0453 72.8276 55.96V47.432C72.8276 47.3573 72.817 47.272 72.7956 47.176C72.7743 47.08 72.737 46.9893 72.6836 46.904C72.641 46.8187 72.5876 46.7493 72.5236 46.696C72.4596 46.632 72.3903 46.6 72.3156 46.6H72.2356V46.44H75.0196C76.0863 46.44 76.9076 46.648 77.4836 47.064C78.0703 47.48 78.3636 48.0933 78.3636 48.904C78.3636 49.3093 78.2943 49.6667 78.1556 49.976C78.0276 50.2747 77.8516 50.536 77.6276 50.76C77.4036 50.9733 77.137 51.1493 76.8276 51.288C76.529 51.416 76.209 51.512 75.8676 51.576L77.0196 53.336C77.297 53.7627 77.5796 54.184 77.8676 54.6C78.1556 55.0053 78.4383 55.4267 78.7156 55.864C78.7903 55.9707 78.8703 56.0827 78.9556 56.2C79.0516 56.3173 79.1476 56.424 79.2436 56.52C79.3503 56.616 79.457 56.696 79.5636 56.76C79.681 56.8133 79.7983 56.84 79.9156 56.84V57H79.2276C78.801 57 78.449 56.8987 78.1716 56.696C77.905 56.4827 77.681 56.2373 77.4996 55.96C77.0196 55.256 76.5396 54.5413 76.0596 53.816C75.5903 53.0907 75.121 52.376 74.6516 51.672C74.5343 51.6613 74.4063 51.6507 74.2676 51.64C74.1396 51.6187 74.017 51.5973 73.8996 51.576V55.96C73.8996 56.0453 73.9103 56.1413 73.9316 56.248C73.953 56.344 73.985 56.4347 74.0276 56.52C74.081 56.6053 74.1343 56.68 74.1876 56.744C74.2516 56.808 74.3263 56.84 74.4116 56.84ZM73.8996 46.984V51.048H73.9796C74.065 51.0587 74.1983 51.0693 74.3796 51.08C74.5716 51.08 74.8063 51.08 75.0836 51.08C75.3076 51.08 75.5423 51.048 75.7876 50.984C76.0436 50.9093 76.2783 50.792 76.4916 50.632C76.7156 50.4613 76.897 50.2427 77.0356 49.976C77.185 49.7093 77.2596 49.3733 77.2596 48.968C77.2596 48.5627 77.1796 48.232 77.0196 47.976C76.8703 47.72 76.657 47.5173 76.3796 47.368C76.113 47.2187 75.7876 47.1173 75.4036 47.064C75.0196 47.0107 74.5983 46.984 74.1396 46.984H73.8996ZM89.2085 56.84H89.2885V57H87.0325V56.84H87.1125C87.1872 56.84 87.2565 56.808 87.3205 56.744C87.3845 56.68 87.4378 56.6053 87.4805 56.52C87.5338 56.4347 87.5712 56.344 87.5925 56.248C87.6138 56.1413 87.6245 56.0453 87.6245 55.96V47.432C87.6245 47.3573 87.6138 47.272 87.5925 47.176C87.5712 47.08 87.5338 46.9893 87.4805 46.904C87.4378 46.8187 87.3845 46.7493 87.3205 46.696C87.2565 46.632 87.1872 46.6 87.1125 46.6H87.0325V46.44H89.8165C90.8832 46.44 91.7045 46.648 92.2805 47.064C92.8672 47.48 93.1605 48.0933 93.1605 48.904C93.1605 49.3093 93.0912 49.6667 92.9525 49.976C92.8245 50.2747 92.6485 50.536 92.4245 50.76C92.2005 50.9733 91.9338 51.1493 91.6245 51.288C91.3258 51.416 91.0058 51.512 90.6645 51.576L91.8165 53.336C92.0938 53.7627 92.3765 54.184 92.6645 54.6C92.9525 55.0053 93.2352 55.4267 93.5125 55.864C93.5872 55.9707 93.6672 56.0827 93.7525 56.2C93.8485 56.3173 93.9445 56.424 94.0405 56.52C94.1472 56.616 94.2538 56.696 94.3605 56.76C94.4778 56.8133 94.5952 56.84 94.7125 56.84V57H94.0245C93.5978 57 93.2458 56.8987 92.9685 56.696C92.7018 56.4827 92.4778 56.2373 92.2965 55.96C91.8165 55.256 91.3365 54.5413 90.8565 53.816C90.3872 53.0907 89.9178 52.376 89.4485 51.672C89.3312 51.6613 89.2032 51.6507 89.0645 51.64C88.9365 51.6187 88.8138 51.5973 88.6965 51.576V55.96C88.6965 56.0453 88.7072 56.1413 88.7285 56.248C88.7498 56.344 88.7818 56.4347 88.8245 56.52C88.8778 56.6053 88.9312 56.68 88.9845 56.744C89.0485 56.808 89.1232 56.84 89.2085 56.84ZM88.6965 46.984V51.048H88.7765C88.8618 51.0587 88.9952 51.0693 89.1765 51.08C89.3685 51.08 89.6032 51.08 89.8805 51.08C90.1045 51.08 90.3392 51.048 90.5845 50.984C90.8405 50.9093 91.0752 50.792 91.2885 50.632C91.5125 50.4613 91.6938 50.2427 91.8325 49.976C91.9818 49.7093 92.0565 49.3733 92.0565 48.968C92.0565 48.5627 91.9765 48.232 91.8165 47.976C91.6672 47.72 91.4538 47.5173 91.1765 47.368C90.9098 47.2187 90.5845 47.1173 90.2005 47.064C89.8165 47.0107 89.3952 46.984 88.9365 46.984H88.6965ZM96.6731 56.84H96.7531C96.8385 56.84 96.9131 56.8133 96.9771 56.76C97.0411 56.696 97.0945 56.6213 97.1371 56.536C97.1905 56.4507 97.2278 56.36 97.2491 56.264C97.2811 56.168 97.2971 56.0773 97.2971 55.992V47.432C97.2971 47.3573 97.2811 47.272 97.2491 47.176C97.2278 47.08 97.1905 46.9893 97.1371 46.904C97.0945 46.8187 97.0411 46.7493 96.9771 46.696C96.9131 46.632 96.8385 46.6 96.7531 46.6H96.6731V46.44H102.833V47.928H102.673C102.652 47.6827 102.556 47.4693 102.385 47.288C102.214 47.096 101.948 47 101.585 47H98.3691V51.048H101.025C101.27 51.048 101.473 50.9733 101.633 50.824C101.804 50.6747 101.889 50.4987 101.889 50.296H102.049V52.296H101.889C101.889 52.104 101.809 51.9387 101.649 51.8C101.489 51.6613 101.281 51.592 101.025 51.592H98.3691V56.44H101.873C102.076 56.44 102.252 56.392 102.401 56.296C102.55 56.2 102.673 56.088 102.769 55.96C102.876 55.8213 102.95 55.6773 102.993 55.528C103.046 55.368 103.073 55.2347 103.073 55.128H103.233V57H96.6731V56.84ZM111.919 54.168C111.919 54.7013 111.812 55.16 111.599 55.544C111.385 55.9173 111.108 56.2213 110.767 56.456C110.436 56.6907 110.057 56.8613 109.631 56.968C109.215 57.0747 108.799 57.128 108.383 57.128C107.956 57.128 107.588 57.0853 107.279 57C106.969 56.9147 106.687 56.8347 106.431 56.76C106.26 56.7067 106.105 56.664 105.967 56.632C105.828 56.5893 105.689 56.568 105.551 56.568V54.744H105.711C105.711 55.1493 105.812 55.4747 106.015 55.72C106.228 55.9547 106.473 56.136 106.751 56.264C107.028 56.392 107.305 56.4773 107.583 56.52C107.86 56.552 108.063 56.568 108.191 56.568C108.649 56.568 109.044 56.504 109.375 56.376C109.705 56.2373 109.977 56.0613 110.191 55.848C110.404 55.624 110.559 55.3787 110.655 55.112C110.761 54.8453 110.815 54.5733 110.815 54.296C110.815 53.944 110.74 53.6507 110.591 53.416C110.441 53.1707 110.244 52.9573 109.999 52.776C109.764 52.5947 109.492 52.44 109.183 52.312C108.873 52.184 108.559 52.056 108.239 51.928C107.876 51.7893 107.519 51.6453 107.167 51.496C106.815 51.3467 106.5 51.1653 106.223 50.952C105.945 50.728 105.721 50.4667 105.551 50.168C105.38 49.8587 105.295 49.48 105.295 49.032C105.295 48.5627 105.385 48.1573 105.567 47.816C105.748 47.464 105.988 47.176 106.287 46.952C106.596 46.728 106.943 46.5627 107.327 46.456C107.721 46.3387 108.121 46.28 108.527 46.28C108.804 46.28 109.065 46.3013 109.311 46.344C109.556 46.376 109.791 46.4187 110.015 46.472C110.196 46.5147 110.372 46.552 110.543 46.584C110.713 46.6053 110.879 46.616 111.039 46.616V48.264H110.879C110.857 47.7093 110.639 47.336 110.223 47.144C109.807 46.9413 109.231 46.84 108.495 46.84C108.068 46.84 107.716 46.9147 107.439 47.064C107.172 47.2027 106.959 47.3787 106.799 47.592C106.639 47.7947 106.527 48.0187 106.463 48.264C106.409 48.4987 106.383 48.7067 106.383 48.888C106.383 49.1867 106.447 49.4427 106.575 49.656C106.713 49.8693 106.895 50.056 107.119 50.216C107.343 50.376 107.599 50.52 107.887 50.648C108.185 50.776 108.495 50.8987 108.815 51.016C109.177 51.1547 109.545 51.304 109.919 51.464C110.292 51.624 110.623 51.8213 110.911 52.056C111.209 52.2907 111.449 52.5787 111.631 52.92C111.823 53.2613 111.919 53.6773 111.919 54.168ZM117.737 56.84H117.817V57H115.545V56.84H115.625C115.71 56.84 115.785 56.808 115.849 56.744C115.913 56.68 115.966 56.6053 116.009 56.52C116.062 56.4347 116.099 56.344 116.121 56.248C116.142 56.1413 116.153 56.0453 116.153 55.96V47.032H114.297C114.126 47.032 113.977 47.0693 113.849 47.144C113.721 47.2187 113.614 47.3147 113.529 47.432C113.443 47.5387 113.379 47.6613 113.337 47.8C113.294 47.928 113.273 48.056 113.273 48.184H113.113V46.44H120.297V48.184H120.137C120.137 48.056 120.115 47.928 120.073 47.8C120.03 47.6613 119.966 47.5387 119.881 47.432C119.795 47.3147 119.689 47.2187 119.561 47.144C119.433 47.0693 119.283 47.032 119.113 47.032H117.225V55.96C117.225 56.0453 117.235 56.1413 117.257 56.248C117.278 56.344 117.31 56.4347 117.353 56.52C117.406 56.6053 117.459 56.68 117.513 56.744C117.577 56.808 117.651 56.84 117.737 56.84ZM126.801 56.84H126.881C127.137 56.84 127.265 56.7227 127.265 56.488C127.265 56.4027 127.249 56.312 127.217 56.216L125.777 52.328H122.977L121.585 56.152C121.553 56.2373 121.537 56.3173 121.537 56.392C121.537 56.5307 121.574 56.6427 121.649 56.728C121.723 56.8027 121.803 56.84 121.889 56.84H121.969V57H120.193V56.84H120.273C120.411 56.84 120.545 56.76 120.673 56.6C120.811 56.4293 120.923 56.232 121.009 56.008L124.673 46.248L128.257 55.912C128.331 56.1253 128.433 56.3333 128.561 56.536C128.699 56.7387 128.875 56.84 129.089 56.84H129.169V57H126.801V56.84ZM123.137 51.784H125.601L124.369 48.44L123.137 51.784ZM131.126 46.44H133.398V46.6H133.318C133.233 46.6 133.158 46.632 133.094 46.696C133.03 46.7493 132.972 46.8187 132.918 46.904C132.876 46.9893 132.844 47.08 132.822 47.176C132.801 47.272 132.79 47.3573 132.79 47.432V53.752C132.79 54.168 132.833 54.552 132.918 54.904C133.004 55.256 133.148 55.56 133.35 55.816C133.553 56.072 133.82 56.2747 134.15 56.424C134.481 56.5627 134.886 56.632 135.366 56.632C135.9 56.632 136.326 56.5467 136.646 56.376C136.966 56.2053 137.212 55.9867 137.382 55.72C137.553 55.4427 137.665 55.1333 137.718 54.792C137.772 54.4507 137.798 54.1147 137.798 53.784V47.432C137.798 47.3573 137.788 47.272 137.766 47.176C137.745 47.08 137.708 46.9893 137.654 46.904C137.612 46.8187 137.558 46.7493 137.494 46.696C137.43 46.632 137.361 46.6 137.286 46.6H137.206V46.44H138.95V46.6H138.87C138.785 46.6 138.71 46.632 138.646 46.696C138.593 46.7493 138.54 46.8187 138.486 46.904C138.444 46.9893 138.412 47.08 138.39 47.176C138.369 47.272 138.358 47.3573 138.358 47.432V53.736C138.358 54.4293 138.273 55 138.102 55.448C137.932 55.8853 137.697 56.232 137.398 56.488C137.1 56.744 136.748 56.92 136.342 57.016C135.948 57.112 135.526 57.16 135.078 57.16C134.598 57.16 134.15 57.1067 133.734 57C133.329 56.904 132.977 56.728 132.678 56.472C132.38 56.216 132.145 55.8693 131.974 55.432C131.804 54.984 131.718 54.424 131.718 53.752V47.432C131.718 47.3573 131.708 47.272 131.686 47.176C131.665 47.08 131.628 46.9893 131.574 46.904C131.532 46.8187 131.478 46.7493 131.414 46.696C131.35 46.632 131.281 46.6 131.206 46.6H131.126V46.44ZM143.646 56.84H143.726V57H141.47V56.84H141.55C141.625 56.84 141.694 56.808 141.758 56.744C141.822 56.68 141.875 56.6053 141.918 56.52C141.971 56.4347 142.009 56.344 142.03 56.248C142.051 56.1413 142.062 56.0453 142.062 55.96V47.432C142.062 47.3573 142.051 47.272 142.03 47.176C142.009 47.08 141.971 46.9893 141.918 46.904C141.875 46.8187 141.822 46.7493 141.758 46.696C141.694 46.632 141.625 46.6 141.55 46.6H141.47V46.44H144.254C145.321 46.44 146.142 46.648 146.718 47.064C147.305 47.48 147.598 48.0933 147.598 48.904C147.598 49.3093 147.529 49.6667 147.39 49.976C147.262 50.2747 147.086 50.536 146.862 50.76C146.638 50.9733 146.371 51.1493 146.062 51.288C145.763 51.416 145.443 51.512 145.102 51.576L146.254 53.336C146.531 53.7627 146.814 54.184 147.102 54.6C147.39 55.0053 147.673 55.4267 147.95 55.864C148.025 55.9707 148.105 56.0827 148.19 56.2C148.286 56.3173 148.382 56.424 148.478 56.52C148.585 56.616 148.691 56.696 148.798 56.76C148.915 56.8133 149.033 56.84 149.15 56.84V57H148.462C148.035 57 147.683 56.8987 147.406 56.696C147.139 56.4827 146.915 56.2373 146.734 55.96C146.254 55.256 145.774 54.5413 145.294 53.816C144.825 53.0907 144.355 52.376 143.886 51.672C143.769 51.6613 143.641 51.6507 143.502 51.64C143.374 51.6187 143.251 51.5973 143.134 51.576V55.96C143.134 56.0453 143.145 56.1413 143.166 56.248C143.187 56.344 143.219 56.4347 143.262 56.52C143.315 56.6053 143.369 56.68 143.422 56.744C143.486 56.808 143.561 56.84 143.646 56.84ZM143.134 46.984V51.048H143.214C143.299 51.0587 143.433 51.0693 143.614 51.08C143.806 51.08 144.041 51.08 144.318 51.08C144.542 51.08 144.777 51.048 145.022 50.984C145.278 50.9093 145.513 50.792 145.726 50.632C145.95 50.4613 146.131 50.2427 146.27 49.976C146.419 49.7093 146.494 49.3733 146.494 48.968C146.494 48.5627 146.414 48.232 146.254 47.976C146.105 47.72 145.891 47.5173 145.614 47.368C145.347 47.2187 145.022 47.1173 144.638 47.064C144.254 47.0107 143.833 46.984 143.374 46.984H143.134ZM157.223 56.84H157.303C157.559 56.84 157.687 56.7227 157.687 56.488C157.687 56.4027 157.671 56.312 157.639 56.216L156.199 52.328H153.399L152.007 56.152C151.975 56.2373 151.959 56.3173 151.959 56.392C151.959 56.5307 151.996 56.6427 152.071 56.728C152.145 56.8027 152.225 56.84 152.311 56.84H152.391V57H150.615V56.84H150.695C150.833 56.84 150.967 56.76 151.095 56.6C151.233 56.4293 151.345 56.232 151.431 56.008L155.095 46.248L158.679 55.912C158.753 56.1253 158.855 56.3333 158.983 56.536C159.121 56.7387 159.297 56.84 159.511 56.84H159.591V57H157.223V56.84ZM153.559 51.784H156.023L154.791 48.44L153.559 51.784ZM163.228 56.84H163.308V57H161.532V56.84H161.612C161.687 56.84 161.756 56.808 161.82 56.744C161.895 56.68 161.953 56.6053 161.996 56.52C162.039 56.4347 162.071 56.344 162.092 56.248C162.124 56.1413 162.14 56.0453 162.14 55.96V47.432C162.14 47.3573 162.129 47.272 162.108 47.176C162.097 47.08 162.071 46.9893 162.028 46.904C161.985 46.8187 161.927 46.7493 161.852 46.696C161.777 46.632 161.687 46.6 161.58 46.6H161.5V46.44H163.116L168.924 55.592V47.432C168.924 47.3573 168.908 47.272 168.876 47.176C168.855 47.08 168.817 46.9893 168.764 46.904C168.721 46.8187 168.668 46.7493 168.604 46.696C168.54 46.632 168.465 46.6 168.38 46.6H168.3V46.44H170.092V46.6H170.012C169.927 46.6 169.852 46.632 169.788 46.696C169.724 46.7493 169.665 46.8187 169.612 46.904C169.569 46.9893 169.537 47.08 169.516 47.176C169.495 47.272 169.484 47.3573 169.484 47.432V57H168.492L162.7 47.816V55.96C162.7 56.0453 162.711 56.1413 162.732 56.248C162.753 56.344 162.785 56.4347 162.828 56.52C162.881 56.6053 162.94 56.68 163.004 56.744C163.068 56.808 163.143 56.84 163.228 56.84ZM176.643 56.84H176.723V57H174.451V56.84H174.531C174.616 56.84 174.691 56.808 174.755 56.744C174.819 56.68 174.872 56.6053 174.915 56.52C174.968 56.4347 175.006 56.344 175.027 56.248C175.048 56.1413 175.059 56.0453 175.059 55.96V47.032H173.203C173.032 47.032 172.883 47.0693 172.755 47.144C172.627 47.2187 172.52 47.3147 172.435 47.432C172.35 47.5387 172.286 47.6613 172.243 47.8C172.2 47.928 172.179 48.056 172.179 48.184H172.019V46.44H179.203V48.184H179.043C179.043 48.056 179.022 47.928 178.979 47.8C178.936 47.6613 178.872 47.5387 178.787 47.432C178.702 47.3147 178.595 47.2187 178.467 47.144C178.339 47.0693 178.19 47.032 178.019 47.032H176.131V55.96C176.131 56.0453 176.142 56.1413 176.163 56.248C176.184 56.344 176.216 56.4347 176.259 56.52C176.312 56.6053 176.366 56.68 176.419 56.744C176.483 56.808 176.558 56.84 176.643 56.84Z" fill="#EFE7D2"/>
<rect x="192" y="36" width="32" height="32" rx="16" fill="#181818" fill-opacity="0.5"/>
<rect x="192.5" y="36.5" width="31" height="31" rx="15.5" stroke="#EFE7D2" stroke-opacity="0.15"/>
<path d="M213.762 52.2625L209.262 56.7625C209.228 56.797 209.187 56.8243 209.142 56.843C209.097 56.8616 209.049 56.8712 209 56.8712C208.951 56.8712 208.903 56.8616 208.858 56.843C208.813 56.8243 208.772 56.797 208.738 56.7625C208.703 56.728 208.676 56.6871 208.657 56.6421C208.638 56.597 208.629 56.5488 208.629 56.5C208.629 56.4513 208.638 56.403 208.657 56.358C208.676 56.3129 208.703 56.272 208.738 56.2375L212.594 52.375H202.5C202.401 52.375 202.305 52.3355 202.235 52.2652C202.165 52.1949 202.125 52.0995 202.125 52C202.125 51.9006 202.165 51.8052 202.235 51.7349C202.305 51.6645 202.401 51.625 202.5 51.625H212.594L208.738 47.7625C208.668 47.6929 208.629 47.5985 208.629 47.5C208.629 47.4016 208.668 47.3071 208.738 47.2375C208.807 47.1679 208.902 47.1288 209 47.1288C209.098 47.1288 209.193 47.1679 209.262 47.2375L213.762 51.7375C213.798 51.7714 213.826 51.8121 213.846 51.8572C213.865 51.9023 213.875 51.9509 213.875 52C213.875 52.0491 213.865 52.0977 213.846 52.1428C213.826 52.1879 213.798 52.2287 213.762 52.2625Z" fill="#EFE7D2"/>
</svg>
