<svg width="191" height="68" viewBox="0 0 191 68" fill="none" xmlns="http://www.w3.org/2000/svg">
<path d="M24 48C24 34.7452 34.7452 24 48 24H191V68H24V48Z" fill="#0A0B0A"/>
<path d="M24 68V44C24 57.2548 13.2548 68 0 68H24Z" fill="#0A0B0A"/>
<path d="M191 24V0C191 13.2548 180.255 24 167 24H191Z" fill="#0A0B0A"/>
<path d="M50.896 56.84H50.976V57H48.72V56.84H48.8C48.8747 56.84 48.944 56.808 49.008 56.744C49.072 56.68 49.1253 56.6053 49.168 56.52C49.2213 56.4347 49.2587 56.344 49.28 56.248C49.3013 56.1413 49.312 56.0453 49.312 55.96V47.432C49.312 47.3573 49.3013 47.272 49.28 47.176C49.2587 47.08 49.2213 46.9893 49.168 46.904C49.1253 46.8187 49.072 46.7493 49.008 46.696C48.944 46.632 48.8747 46.6 48.8 46.6H48.72V46.44H51.504C52.5707 46.44 53.392 46.648 53.968 47.064C54.5547 47.48 54.848 48.0933 54.848 48.904C54.848 49.3093 54.7787 49.6667 54.64 49.976C54.512 50.2747 54.336 50.536 54.112 50.76C53.888 50.9733 53.6213 51.1493 53.312 51.288C53.0133 51.416 52.6933 51.512 52.352 51.576L53.504 53.336C53.7813 53.7627 54.064 54.184 54.352 54.6C54.64 55.0053 54.9227 55.4267 55.2 55.864C55.2747 55.9707 55.3547 56.0827 55.44 56.2C55.536 56.3173 55.632 56.424 55.728 56.52C55.8347 56.616 55.9413 56.696 56.048 56.76C56.1653 56.8133 56.2827 56.84 56.4 56.84V57H55.712C55.2853 57 54.9333 56.8987 54.656 56.696C54.3893 56.4827 54.1653 56.2373 53.984 55.96C53.504 55.256 53.024 54.5413 52.544 53.816C52.0747 53.0907 51.6053 52.376 51.136 51.672C51.0187 51.6613 50.8907 51.6507 50.752 51.64C50.624 51.6187 50.5013 51.5973 50.384 51.576V55.96C50.384 56.0453 50.3947 56.1413 50.416 56.248C50.4373 56.344 50.4693 56.4347 50.512 56.52C50.5653 56.6053 50.6187 56.68 50.672 56.744C50.736 56.808 50.8107 56.84 50.896 56.84ZM50.384 46.984V51.048H50.464C50.5493 51.0587 50.6827 51.0693 50.864 51.08C51.056 51.08 51.2907 51.08 51.568 51.08C51.792 51.08 52.0267 51.048 52.272 50.984C52.528 50.9093 52.7627 50.792 52.976 50.632C53.2 50.4613 53.3813 50.2427 53.52 49.976C53.6693 49.7093 53.744 49.3733 53.744 48.968C53.744 48.5627 53.664 48.232 53.504 47.976C53.3547 47.72 53.1413 47.5173 52.864 47.368C52.5973 47.2187 52.272 47.1173 51.888 47.064C51.504 47.0107 51.0827 46.984 50.624 46.984H50.384ZM58.3606 56.84H58.4406C58.526 56.84 58.6006 56.8133 58.6646 56.76C58.7286 56.696 58.782 56.6213 58.8246 56.536C58.878 56.4507 58.9153 56.36 58.9366 56.264C58.9686 56.168 58.9846 56.0773 58.9846 55.992V47.432C58.9846 47.3573 58.9686 47.272 58.9366 47.176C58.9153 47.08 58.878 46.9893 58.8246 46.904C58.782 46.8187 58.7286 46.7493 58.6646 46.696C58.6006 46.632 58.526 46.6 58.4406 46.6H58.3606V46.44H64.5206V47.928H64.3606C64.3393 47.6827 64.2433 47.4693 64.0726 47.288C63.902 47.096 63.6353 47 63.2726 47H60.0566V51.048H62.7126C62.958 51.048 63.1606 50.9733 63.3206 50.824C63.4913 50.6747 63.5766 50.4987 63.5766 50.296H63.7366V52.296H63.5766C63.5766 52.104 63.4966 51.9387 63.3366 51.8C63.1766 51.6613 62.9686 51.592 62.7126 51.592H60.0566V56.44H63.5606C63.7633 56.44 63.9393 56.392 64.0886 56.296C64.238 56.2 64.3606 56.088 64.4566 55.96C64.5633 55.8213 64.638 55.6773 64.6806 55.528C64.734 55.368 64.7606 55.2347 64.7606 55.128H64.9206V57H58.3606V56.84ZM73.6063 54.168C73.6063 54.7013 73.4996 55.16 73.2863 55.544C73.0729 55.9173 72.7956 56.2213 72.4543 56.456C72.1236 56.6907 71.7449 56.8613 71.3183 56.968C70.9023 57.0747 70.4863 57.128 70.0703 57.128C69.6436 57.128 69.2756 57.0853 68.9663 57C68.6569 56.9147 68.3743 56.8347 68.1183 56.76C67.9476 56.7067 67.7929 56.664 67.6543 56.632C67.5156 56.5893 67.3769 56.568 67.2383 56.568V54.744H67.3983C67.3983 55.1493 67.4996 55.4747 67.7023 55.72C67.9156 55.9547 68.1609 56.136 68.4383 56.264C68.7156 56.392 68.9929 56.4773 69.2703 56.52C69.5476 56.552 69.7503 56.568 69.8783 56.568C70.3369 56.568 70.7316 56.504 71.0623 56.376C71.3929 56.2373 71.6649 56.0613 71.8783 55.848C72.0916 55.624 72.2463 55.3787 72.3423 55.112C72.4489 54.8453 72.5023 54.5733 72.5023 54.296C72.5023 53.944 72.4276 53.6507 72.2783 53.416C72.1289 53.1707 71.9316 52.9573 71.6863 52.776C71.4516 52.5947 71.1796 52.44 70.8703 52.312C70.5609 52.184 70.2463 52.056 69.9263 51.928C69.5636 51.7893 69.2063 51.6453 68.8543 51.496C68.5023 51.3467 68.1876 51.1653 67.9103 50.952C67.6329 50.728 67.4089 50.4667 67.2383 50.168C67.0676 49.8587 66.9823 49.48 66.9823 49.032C66.9823 48.5627 67.0729 48.1573 67.2543 47.816C67.4356 47.464 67.6756 47.176 67.9743 46.952C68.2836 46.728 68.6303 46.5627 69.0143 46.456C69.4089 46.3387 69.8089 46.28 70.2143 46.28C70.4916 46.28 70.7529 46.3013 70.9983 46.344C71.2436 46.376 71.4783 46.4187 71.7023 46.472C71.8836 46.5147 72.0596 46.552 72.2303 46.584C72.4009 46.6053 72.5663 46.616 72.7263 46.616V48.264H72.5663C72.5449 47.7093 72.3263 47.336 71.9103 47.144C71.4943 46.9413 70.9183 46.84 70.1823 46.84C69.7556 46.84 69.4036 46.9147 69.1263 47.064C68.8596 47.2027 68.6463 47.3787 68.4863 47.592C68.3263 47.7947 68.2143 48.0187 68.1503 48.264C68.0969 48.4987 68.0703 48.7067 68.0703 48.888C68.0703 49.1867 68.1343 49.4427 68.2623 49.656C68.4009 49.8693 68.5823 50.056 68.8063 50.216C69.0303 50.376 69.2863 50.52 69.5743 50.648C69.8729 50.776 70.1823 50.8987 70.5023 51.016C70.8649 51.1547 71.2329 51.304 71.6063 51.464C71.9796 51.624 72.3103 51.8213 72.5983 52.056C72.8969 52.2907 73.1369 52.5787 73.3183 52.92C73.5103 53.2613 73.6063 53.6773 73.6063 54.168ZM75.97 56.84H76.05C76.1353 56.84 76.21 56.8133 76.274 56.76C76.338 56.696 76.3913 56.6213 76.434 56.536C76.4873 56.4507 76.5247 56.36 76.546 56.264C76.578 56.168 76.594 56.0773 76.594 55.992V47.432C76.594 47.3573 76.578 47.272 76.546 47.176C76.5247 47.08 76.4873 46.9893 76.434 46.904C76.3913 46.8187 76.338 46.7493 76.274 46.696C76.21 46.632 76.1353 46.6 76.05 46.6H75.97V46.44H82.13V47.928H81.97C81.9487 47.6827 81.8527 47.4693 81.682 47.288C81.5113 47.096 81.2447 47 80.882 47H77.666V51.048H80.322C80.5673 51.048 80.77 50.9733 80.93 50.824C81.1007 50.6747 81.186 50.4987 81.186 50.296H81.346V52.296H81.186C81.186 52.104 81.106 51.9387 80.946 51.8C80.786 51.6613 80.578 51.592 80.322 51.592H77.666V56.44H81.17C81.3727 56.44 81.5487 56.392 81.698 56.296C81.8473 56.2 81.97 56.088 82.066 55.96C82.1727 55.8213 82.2473 55.6773 82.29 55.528C82.3433 55.368 82.37 55.2347 82.37 55.128H82.53V57H75.97V56.84ZM86.9116 56.84H86.9916V57H84.7356V56.84H84.8156C84.8903 56.84 84.9596 56.808 85.0236 56.744C85.0876 56.68 85.141 56.6053 85.1836 56.52C85.237 56.4347 85.2743 56.344 85.2956 56.248C85.317 56.1413 85.3276 56.0453 85.3276 55.96V47.432C85.3276 47.3573 85.317 47.272 85.2956 47.176C85.2743 47.08 85.237 46.9893 85.1836 46.904C85.141 46.8187 85.0876 46.7493 85.0236 46.696C84.9596 46.632 84.8903 46.6 84.8156 46.6H84.7356V46.44H87.5196C88.5863 46.44 89.4076 46.648 89.9836 47.064C90.5703 47.48 90.8636 48.0933 90.8636 48.904C90.8636 49.3093 90.7943 49.6667 90.6556 49.976C90.5276 50.2747 90.3516 50.536 90.1276 50.76C89.9036 50.9733 89.637 51.1493 89.3276 51.288C89.029 51.416 88.709 51.512 88.3676 51.576L89.5196 53.336C89.797 53.7627 90.0796 54.184 90.3676 54.6C90.6556 55.0053 90.9383 55.4267 91.2156 55.864C91.2903 55.9707 91.3703 56.0827 91.4556 56.2C91.5516 56.3173 91.6476 56.424 91.7436 56.52C91.8503 56.616 91.957 56.696 92.0636 56.76C92.181 56.8133 92.2983 56.84 92.4156 56.84V57H91.7276C91.301 57 90.949 56.8987 90.6716 56.696C90.405 56.4827 90.181 56.2373 89.9996 55.96C89.5196 55.256 89.0396 54.5413 88.5596 53.816C88.0903 53.0907 87.621 52.376 87.1516 51.672C87.0343 51.6613 86.9063 51.6507 86.7676 51.64C86.6396 51.6187 86.517 51.5973 86.3996 51.576V55.96C86.3996 56.0453 86.4103 56.1413 86.4316 56.248C86.453 56.344 86.485 56.4347 86.5276 56.52C86.581 56.6053 86.6343 56.68 86.6876 56.744C86.7516 56.808 86.8263 56.84 86.9116 56.84ZM86.3996 46.984V51.048H86.4796C86.565 51.0587 86.6983 51.0693 86.8796 51.08C87.0716 51.08 87.3063 51.08 87.5836 51.08C87.8076 51.08 88.0423 51.048 88.2876 50.984C88.5436 50.9093 88.7783 50.792 88.9916 50.632C89.2156 50.4613 89.397 50.2427 89.5356 49.976C89.685 49.7093 89.7596 49.3733 89.7596 48.968C89.7596 48.5627 89.6796 48.232 89.5196 47.976C89.3703 47.72 89.157 47.5173 88.8796 47.368C88.613 47.2187 88.2876 47.1173 87.9036 47.064C87.5196 47.0107 87.0983 46.984 86.6396 46.984H86.3996ZM95.6883 47C95.6883 47.064 95.7043 47.144 95.7363 47.24L98.5523 54.824L101.368 47.16C101.379 47.1387 101.39 47.1067 101.4 47.064C101.411 47.0213 101.416 46.9893 101.416 46.968C101.416 46.84 101.363 46.7493 101.256 46.696C101.16 46.632 101.07 46.6 100.984 46.6V46.44H102.728V46.6C102.568 46.6 102.419 46.6427 102.28 46.728C102.152 46.8133 102.051 46.9573 101.976 47.16L98.3123 57.192L94.5683 47.208C94.5043 47.048 94.4083 46.9093 94.2803 46.792C94.1629 46.6747 94.0136 46.6107 93.8323 46.6V46.44H96.1043V46.6C96.0083 46.6 95.9123 46.6373 95.8163 46.712C95.7309 46.776 95.6883 46.872 95.6883 47ZM108.051 56.84H108.131C108.387 56.84 108.515 56.7227 108.515 56.488C108.515 56.4027 108.499 56.312 108.467 56.216L107.027 52.328H104.227L102.835 56.152C102.803 56.2373 102.787 56.3173 102.787 56.392C102.787 56.5307 102.824 56.6427 102.899 56.728C102.973 56.8027 103.053 56.84 103.139 56.84H103.219V57H101.443V56.84H101.523C101.661 56.84 101.795 56.76 101.923 56.6C102.061 56.4293 102.173 56.232 102.259 56.008L105.923 46.248L109.507 55.912C109.581 56.1253 109.683 56.3333 109.811 56.536C109.949 56.7387 110.125 56.84 110.339 56.84H110.419V57H108.051V56.84ZM104.387 51.784H106.851L105.619 48.44L104.387 51.784ZM114.94 56.84H115.02V57H112.748V56.84H112.828C112.913 56.84 112.988 56.808 113.052 56.744C113.116 56.68 113.169 56.6053 113.212 56.52C113.265 56.4347 113.303 56.344 113.324 56.248C113.345 56.1413 113.356 56.0453 113.356 55.96V47.032H111.5C111.329 47.032 111.18 47.0693 111.052 47.144C110.924 47.2187 110.817 47.3147 110.732 47.432C110.647 47.5387 110.583 47.6613 110.54 47.8C110.497 47.928 110.476 48.056 110.476 48.184H110.316V46.44H117.5V48.184H117.34C117.34 48.056 117.319 47.928 117.276 47.8C117.233 47.6613 117.169 47.5387 117.084 47.432C116.999 47.3147 116.892 47.2187 116.764 47.144C116.636 47.0693 116.487 47.032 116.316 47.032H114.428V55.96C114.428 56.0453 114.439 56.1413 114.46 56.248C114.481 56.344 114.513 56.4347 114.556 56.52C114.609 56.6053 114.663 56.68 114.716 56.744C114.78 56.808 114.855 56.84 114.94 56.84ZM119.44 46.44H121.728V46.6H121.648C121.574 46.6 121.504 46.632 121.44 46.696C121.376 46.7493 121.323 46.8187 121.28 46.904C121.238 46.9787 121.2 47.0693 121.168 47.176C121.147 47.272 121.136 47.3573 121.136 47.432V55.96C121.136 56.0453 121.147 56.1413 121.168 56.248C121.19 56.344 121.222 56.4347 121.264 56.52C121.318 56.6053 121.371 56.68 121.424 56.744C121.488 56.808 121.563 56.84 121.648 56.84H121.728V57H119.44V56.84H119.52C119.606 56.84 119.68 56.8133 119.744 56.76C119.808 56.696 119.862 56.6213 119.904 56.536C119.958 56.44 119.995 56.344 120.016 56.248C120.038 56.1413 120.048 56.0453 120.048 55.96V47.432C120.048 47.3573 120.038 47.272 120.016 47.176C119.995 47.08 119.958 46.9893 119.904 46.904C119.862 46.8187 119.808 46.7493 119.744 46.696C119.68 46.632 119.606 46.6 119.52 46.6H119.44V46.44ZM129.659 46.28C130.491 46.28 131.238 46.4293 131.899 46.728C132.56 47.016 133.12 47.4107 133.579 47.912C134.048 48.4027 134.406 48.9787 134.651 49.64C134.907 50.2907 135.035 50.9733 135.035 51.688C135.035 52.488 134.886 53.224 134.587 53.896C134.299 54.568 133.899 55.144 133.387 55.624C132.875 56.104 132.278 56.4827 131.595 56.76C130.923 57.0267 130.203 57.16 129.435 57.16C128.614 57.16 127.872 57.0107 127.211 56.712C126.56 56.4133 126.006 56.0187 125.547 55.528C125.099 55.0373 124.752 54.472 124.507 53.832C124.262 53.192 124.139 52.5253 124.139 51.832C124.139 51.1493 124.262 50.4773 124.507 49.816C124.752 49.144 125.11 48.5467 125.579 48.024C126.059 47.5013 126.64 47.08 127.323 46.76C128.006 46.44 128.784 46.28 129.659 46.28ZM129.643 56.6C130.358 56.568 130.982 56.408 131.515 56.12C132.059 55.8213 132.512 55.448 132.875 55C133.238 54.5413 133.504 54.04 133.675 53.496C133.856 52.952 133.947 52.4133 133.947 51.88C133.947 51.2933 133.84 50.7013 133.627 50.104C133.414 49.5067 133.11 48.968 132.715 48.488C132.32 47.9973 131.846 47.6027 131.291 47.304C130.747 46.9947 130.134 46.84 129.451 46.84C128.79 46.84 128.198 46.9893 127.675 47.288C127.152 47.576 126.704 47.9493 126.331 48.408C125.968 48.8667 125.691 49.3787 125.499 49.944C125.307 50.5093 125.211 51.064 125.211 51.608C125.211 52.1947 125.323 52.7867 125.547 53.384C125.771 53.9707 126.08 54.504 126.475 54.984C126.87 55.464 127.334 55.8533 127.867 56.152C128.411 56.4507 129.003 56.6 129.643 56.6ZM139.119 56.84H139.199V57H137.423V56.84H137.503C137.577 56.84 137.647 56.808 137.711 56.744C137.785 56.68 137.844 56.6053 137.887 56.52C137.929 56.4347 137.961 56.344 137.983 56.248C138.015 56.1413 138.031 56.0453 138.031 55.96V47.432C138.031 47.3573 138.02 47.272 137.999 47.176C137.988 47.08 137.961 46.9893 137.919 46.904C137.876 46.8187 137.817 46.7493 137.743 46.696C137.668 46.632 137.577 46.6 137.471 46.6H137.391V46.44H139.007L144.815 55.592V47.432C144.815 47.3573 144.799 47.272 144.767 47.176C144.745 47.08 144.708 46.9893 144.655 46.904C144.612 46.8187 144.559 46.7493 144.495 46.696C144.431 46.632 144.356 46.6 144.271 46.6H144.191V46.44H145.983V46.6H145.903C145.817 46.6 145.743 46.632 145.679 46.696C145.615 46.7493 145.556 46.8187 145.503 46.904C145.46 46.9893 145.428 47.08 145.407 47.176C145.385 47.272 145.375 47.3573 145.375 47.432V57H144.383L138.591 47.816V55.96C138.591 56.0453 138.601 56.1413 138.623 56.248C138.644 56.344 138.676 56.4347 138.719 56.52C138.772 56.6053 138.831 56.68 138.895 56.744C138.959 56.808 139.033 56.84 139.119 56.84Z" fill="#EFE7D2"/>
<rect x="159" y="36" width="32" height="32" rx="16" fill="#181818" fill-opacity="0.5"/>
<rect x="159.5" y="36.5" width="31" height="31" rx="15.5" stroke="#EFE7D2" stroke-opacity="0.15"/>
<path d="M180.762 52.2625L176.262 56.7625C176.228 56.797 176.187 56.8243 176.142 56.843C176.097 56.8616 176.049 56.8712 176 56.8712C175.951 56.8712 175.903 56.8616 175.858 56.843C175.813 56.8243 175.772 56.797 175.738 56.7625C175.703 56.728 175.676 56.6871 175.657 56.6421C175.638 56.597 175.629 56.5488 175.629 56.5C175.629 56.4513 175.638 56.403 175.657 56.358C175.676 56.3129 175.703 56.272 175.738 56.2375L179.594 52.375H169.5C169.401 52.375 169.305 52.3355 169.235 52.2652C169.165 52.1949 169.125 52.0995 169.125 52C169.125 51.9006 169.165 51.8052 169.235 51.7349C169.305 51.6645 169.401 51.625 169.5 51.625H179.594L175.738 47.7625C175.668 47.6929 175.629 47.5985 175.629 47.5C175.629 47.4016 175.668 47.3071 175.738 47.2375C175.807 47.1679 175.902 47.1288 176 47.1288C176.098 47.1288 176.193 47.1679 176.262 47.2375L180.762 51.7375C180.798 51.7714 180.826 51.8121 180.846 51.8572C180.865 51.9023 180.875 51.9509 180.875 52C180.875 52.0491 180.865 52.0977 180.846 52.1428C180.826 52.1879 180.798 52.2287 180.762 52.2625Z" fill="#EFE7D2"/>
</svg>
