<svg width="255" height="41" viewBox="0 0 255 41" fill="none" xmlns="http://www.w3.org/2000/svg">
<path d="M14.2065 25.5H13.3545V16.908H14.2065L17.3385 24.48L20.4705 16.908H21.3345V25.5H20.4825V21.42C20.4825 19.92 20.5065 19.26 20.5545 18.672L17.7585 25.5H16.9305L14.1345 18.708C14.1825 19.032 14.2065 19.98 14.2065 21.288V25.5ZM29.569 25.5H24.421V16.908H29.557V17.7H25.285V20.796H29.161V21.576H25.285V24.708H29.569V25.5ZM33.1873 25.5H32.3233V16.908H33.1993L37.9273 24.06V16.908H38.7793V25.5H37.9273L33.1873 18.348V25.5ZM41.818 22.512V16.908H42.682V22.476C42.682 23.988 43.51 24.804 45.01 24.804C46.474 24.804 47.302 23.964 47.302 22.476V16.908H48.166V22.512C48.166 24.456 46.966 25.644 45.01 25.644C43.018 25.644 41.818 24.468 41.818 22.512Z" fill="#EFE7D2"/>
<path d="M78.3545 25.5H77.4785L80.6345 16.908H81.7025L84.8945 25.5H83.9945L83.1545 23.22H79.1945L78.3545 25.5ZM81.0545 18.12L79.4585 22.464H82.8785L81.2705 18.12C81.2345 18 81.1745 17.856 81.1625 17.772C81.1505 17.844 81.1025 18 81.0545 18.12ZM87.0889 25.5V16.908H90.2329C91.8889 16.908 92.9089 17.748 92.9089 19.128C92.9089 20.136 92.4649 20.82 91.5769 21.168C92.5729 21.492 93.0769 22.188 93.0769 23.244C93.0769 24.624 92.0449 25.5 90.4129 25.5H87.0889ZM90.2209 17.676H87.9529V20.82H90.3289C91.4089 20.82 92.0209 20.22 92.0209 19.2C92.0209 18.24 91.3729 17.676 90.2209 17.676ZM90.4129 21.576H87.9529V24.72H90.4129C91.5409 24.72 92.2009 24.132 92.2009 23.136C92.2009 22.164 91.5289 21.576 90.4129 21.576ZM103.292 21.204C103.292 23.808 101.6 25.644 99.1998 25.644C96.7878 25.644 95.1078 23.808 95.1078 21.204C95.1078 18.6 96.7998 16.752 99.1998 16.752C101.612 16.752 103.292 18.588 103.292 21.204ZM102.404 21.204C102.404 19.056 101.096 17.592 99.1998 17.592C97.3038 17.592 96.0078 19.056 96.0078 21.204C96.0078 23.352 97.3038 24.816 99.1998 24.816C101.096 24.816 102.404 23.34 102.404 21.204ZM105.798 22.512V16.908H106.662V22.476C106.662 23.988 107.49 24.804 108.99 24.804C110.454 24.804 111.282 23.964 111.282 22.476V16.908H112.146V22.512C112.146 24.456 110.946 25.644 108.99 25.644C106.998 25.644 105.798 24.468 105.798 22.512ZM114.279 17.7V16.908H120.435V17.7H117.783V25.5H116.919V17.7H114.279Z" fill="#EFE7D2"/>
<rect x="137.311" y="0.5" width="117" height="40" rx="8" fill="#181818" fill-opacity="0.5"/>
<rect x="137.811" y="1" width="116" height="39" rx="7.5" stroke="#EFE7D2" stroke-opacity="0.15"/>
<path d="M150.355 25.5V16.908H153.499C155.155 16.908 156.175 17.748 156.175 19.128C156.175 20.136 155.731 20.82 154.843 21.168C155.839 21.492 156.343 22.188 156.343 23.244C156.343 24.624 155.311 25.5 153.679 25.5H150.355ZM153.487 17.676H151.219V20.82H153.595C154.675 20.82 155.287 20.22 155.287 19.2C155.287 18.24 154.639 17.676 153.487 17.676ZM153.679 21.576H151.219V24.72H153.679C154.807 24.72 155.467 24.132 155.467 23.136C155.467 22.164 154.795 21.576 153.679 21.576ZM166.557 21.204C166.557 23.808 164.865 25.644 162.465 25.644C160.053 25.644 158.373 23.808 158.373 21.204C158.373 18.6 160.065 16.752 162.465 16.752C164.877 16.752 166.557 18.588 166.557 21.204ZM165.669 21.204C165.669 19.056 164.361 17.592 162.465 17.592C160.569 17.592 159.273 19.056 159.273 21.204C159.273 23.352 160.569 24.816 162.465 24.816C164.361 24.816 165.669 23.34 165.669 21.204ZM176.78 21.204C176.78 23.808 175.088 25.644 172.688 25.644C170.276 25.644 168.596 23.808 168.596 21.204C168.596 18.6 170.288 16.752 172.688 16.752C175.1 16.752 176.78 18.588 176.78 21.204ZM175.892 21.204C175.892 19.056 174.584 17.592 172.688 17.592C170.792 17.592 169.496 19.056 169.496 21.204C169.496 23.352 170.792 24.816 172.688 24.816C174.584 24.816 175.892 23.34 175.892 21.204ZM180.211 16.908V22.08L184.351 16.908H185.383L182.467 20.544L185.431 25.5H184.423L181.903 21.264L180.211 23.364V25.5H179.347V16.908H180.211ZM192.069 25.5H191.193L194.349 16.908H195.417L198.609 25.5H197.709L196.869 23.22H192.909L192.069 25.5ZM194.769 18.12L193.173 22.464H196.593L194.985 18.12C194.949 18 194.889 17.856 194.877 17.772C194.865 17.844 194.817 18 194.769 18.12ZM204.232 17.7V16.908H210.388V17.7H207.736V25.5H206.872V17.7H204.232ZM211.792 25.5H210.916L214.072 16.908H215.14L218.332 25.5H217.432L216.592 23.22H212.632L211.792 25.5ZM214.492 18.12L212.896 22.464H216.316L214.708 18.12C214.672 18 214.612 17.856 214.6 17.772C214.588 17.844 214.54 18 214.492 18.12ZM220.526 25.5V16.908H223.67C225.326 16.908 226.346 17.748 226.346 19.128C226.346 20.136 225.902 20.82 225.014 21.168C226.01 21.492 226.514 22.188 226.514 23.244C226.514 24.624 225.482 25.5 223.85 25.5H220.526ZM223.658 17.676H221.39V20.82H223.766C224.846 20.82 225.458 20.22 225.458 19.2C225.458 18.24 224.81 17.676 223.658 17.676ZM223.85 21.576H221.39V24.72H223.85C224.978 24.72 225.638 24.132 225.638 23.136C225.638 22.164 224.966 21.576 223.85 21.576ZM229.937 16.908V24.708H233.885V25.5H229.073V16.908H229.937ZM241.327 25.5H236.179V16.908H241.315V17.7H237.043V20.796H240.919V21.576H237.043V24.708H241.327V25.5Z" fill="#EFE7D2"/>
</svg>
