<svg width="662" height="236" viewBox="0 0 662 236" fill="none" xmlns="http://www.w3.org/2000/svg">
<path d="M58 69.22C58 73.8867 57.0667 77.9 55.2 81.26C53.3333 84.5267 50.9067 87.1867 47.92 89.24C45.0267 91.2933 41.7133 92.7867 37.98 93.72C34.34 94.6533 30.7 95.12 27.06 95.12C23.3267 95.12 20.1067 94.7467 17.4 94C14.6933 93.2533 12.22 92.5533 9.98 91.9C8.48667 91.4333 7.13333 91.06 5.92 90.78C4.70667 90.4067 3.49333 90.22 2.28 90.22V74.26H3.68C3.68 77.8067 4.56667 80.6533 6.34 82.8C8.20667 84.8533 10.3533 86.44 12.78 87.56C15.2067 88.68 17.6333 89.4267 20.06 89.8C22.4867 90.08 24.26 90.22 25.38 90.22C29.3933 90.22 32.8467 89.66 35.74 88.54C38.6333 87.3267 41.0133 85.7867 42.88 83.92C44.7467 81.96 46.1 79.8133 46.94 77.48C47.8733 75.1467 48.34 72.7667 48.34 70.34C48.34 67.26 47.6867 64.6933 46.38 62.64C45.0733 60.4933 43.3467 58.6267 41.2 57.04C39.1467 55.4533 36.7667 54.1 34.06 52.98C31.3533 51.86 28.6 50.74 25.8 49.62C22.6267 48.4067 19.5 47.1467 16.42 45.84C13.34 44.5333 10.5867 42.9467 8.16 41.08C5.73333 39.12 3.77333 36.8333 2.28 34.22C0.786667 31.5133 0.0400003 28.2 0.0400003 24.28C0.0400003 20.1733 0.833334 16.6267 2.42 13.64C4.00667 10.56 6.10667 8.03999 8.72 6.08C11.4267 4.11999 14.46 2.67333 17.82 1.73999C21.2733 0.71333 24.7733 0.199998 28.32 0.199998C30.7467 0.199998 33.0333 0.386665 35.18 0.759999C37.3267 1.04 39.38 1.41333 41.34 1.87999C42.9267 2.25333 44.4667 2.57999 45.96 2.86C47.4533 3.04666 48.9 3.13999 50.3 3.13999V17.56H48.9C48.7133 12.7067 46.8 9.43999 43.16 7.75999C39.52 5.98666 34.48 5.09999 28.04 5.09999C24.3067 5.09999 21.2267 5.75333 18.8 7.05999C16.4667 8.27333 14.6 9.81333 13.2 11.68C11.8 13.4533 10.82 15.4133 10.26 17.56C9.79333 19.6133 9.56 21.4333 9.56 23.02C9.56 25.6333 10.12 27.8733 11.24 29.74C12.4533 31.6067 14.04 33.24 16 34.64C17.96 36.04 20.2 37.3 22.72 38.42C25.3333 39.54 28.04 40.6133 30.84 41.64C34.0133 42.8533 37.2333 44.16 40.5 45.56C43.7667 46.96 46.66 48.6867 49.18 50.74C51.7933 52.7933 53.8933 55.3133 55.48 58.3C57.16 61.2867 58 64.9267 58 69.22ZM72.9328 1.6H92.8128V2.99999H92.1128C91.3661 2.99999 90.7128 3.27999 90.1528 3.83999C89.5928 4.30666 89.0795 4.91333 88.6128 5.65999C88.2395 6.40666 87.9595 7.2 87.7728 8.04C87.5861 8.88 87.4928 9.62666 87.4928 10.28V65.58C87.4928 69.22 87.8661 72.58 88.6128 75.66C89.3595 78.74 90.6195 81.4 92.3928 83.64C94.1661 85.88 96.4995 87.6533 99.3928 88.96C102.286 90.1733 105.833 90.78 110.033 90.78C114.699 90.78 118.433 90.0333 121.233 88.54C124.033 87.0467 126.179 85.1333 127.673 82.8C129.166 80.3733 130.146 77.6667 130.613 74.68C131.079 71.6933 131.313 68.7533 131.313 65.86V10.28C131.313 9.62666 131.219 8.88 131.033 8.04C130.846 7.2 130.519 6.40666 130.053 5.65999C129.679 4.91333 129.213 4.30666 128.653 3.83999C128.093 3.27999 127.486 2.99999 126.833 2.99999H126.133V1.6H141.393V2.99999H140.693C139.946 2.99999 139.293 3.27999 138.733 3.83999C138.266 4.30666 137.799 4.91333 137.333 5.65999C136.959 6.40666 136.679 7.2 136.493 8.04C136.306 8.88 136.213 9.62666 136.213 10.28V65.44C136.213 71.5067 135.466 76.5 133.973 80.42C132.479 84.2467 130.426 87.28 127.813 89.52C125.199 91.76 122.119 93.3 118.573 94.14C115.119 94.98 111.433 95.4 107.513 95.4C103.313 95.4 99.3928 94.9333 95.7528 94C92.2061 93.16 89.1261 91.62 86.5128 89.38C83.8995 87.14 81.8461 84.1067 80.3528 80.28C78.8595 76.36 78.1128 71.46 78.1128 65.58V10.28C78.1128 9.62666 78.0195 8.88 77.8328 8.04C77.6461 7.2 77.3195 6.40666 76.8528 5.65999C76.4795 4.91333 76.0128 4.30666 75.4528 3.83999C74.8928 3.27999 74.2861 2.99999 73.6328 2.99999H72.9328V1.6ZM214.391 69.22C214.391 73.8867 213.457 77.9 211.591 81.26C209.724 84.5267 207.297 87.1867 204.311 89.24C201.417 91.2933 198.104 92.7867 194.371 93.72C190.731 94.6533 187.091 95.12 183.451 95.12C179.717 95.12 176.497 94.7467 173.791 94C171.084 93.2533 168.611 92.5533 166.371 91.9C164.877 91.4333 163.524 91.06 162.311 90.78C161.097 90.4067 159.884 90.22 158.671 90.22V74.26H160.071C160.071 77.8067 160.957 80.6533 162.731 82.8C164.597 84.8533 166.744 86.44 169.171 87.56C171.597 88.68 174.024 89.4267 176.451 89.8C178.877 90.08 180.651 90.22 181.771 90.22C185.784 90.22 189.237 89.66 192.131 88.54C195.024 87.3267 197.404 85.7867 199.271 83.92C201.137 81.96 202.491 79.8133 203.331 77.48C204.264 75.1467 204.731 72.7667 204.731 70.34C204.731 67.26 204.077 64.6933 202.771 62.64C201.464 60.4933 199.737 58.6267 197.591 57.04C195.537 55.4533 193.157 54.1 190.451 52.98C187.744 51.86 184.991 50.74 182.191 49.62C179.017 48.4067 175.891 47.1467 172.811 45.84C169.731 44.5333 166.977 42.9467 164.551 41.08C162.124 39.12 160.164 36.8333 158.671 34.22C157.177 31.5133 156.431 28.2 156.431 24.28C156.431 20.1733 157.224 16.6267 158.811 13.64C160.397 10.56 162.497 8.03999 165.111 6.08C167.817 4.11999 170.851 2.67333 174.211 1.73999C177.664 0.71333 181.164 0.199998 184.711 0.199998C187.137 0.199998 189.424 0.386665 191.571 0.759999C193.717 1.04 195.771 1.41333 197.731 1.87999C199.317 2.25333 200.857 2.57999 202.351 2.86C203.844 3.04666 205.291 3.13999 206.691 3.13999V17.56H205.291C205.104 12.7067 203.191 9.43999 199.551 7.75999C195.911 5.98666 190.871 5.09999 184.431 5.09999C180.697 5.09999 177.617 5.75333 175.191 7.05999C172.857 8.27333 170.991 9.81333 169.591 11.68C168.191 13.4533 167.211 15.4133 166.651 17.56C166.184 19.6133 165.951 21.4333 165.951 23.02C165.951 25.6333 166.511 27.8733 167.631 29.74C168.844 31.6067 170.431 33.24 172.391 34.64C174.351 36.04 176.591 37.3 179.111 38.42C181.724 39.54 184.431 40.6133 187.231 41.64C190.404 42.8533 193.624 44.16 196.891 45.56C200.157 46.96 203.051 48.6867 205.571 50.74C208.184 52.7933 210.284 55.3133 211.871 58.3C213.551 61.2867 214.391 64.9267 214.391 69.22ZM285.183 92.6H285.883C286.537 92.6 287.143 92.3667 287.703 91.9C288.263 91.34 288.73 90.6867 289.103 89.94C289.57 89.1 289.897 88.26 290.083 87.42C290.27 86.4867 290.363 85.6467 290.363 84.9V46.82H245.563V84.9C245.563 85.6467 245.657 86.4867 245.843 87.42C246.03 88.26 246.31 89.0533 246.683 89.8C247.057 90.5467 247.477 91.2 247.943 91.76C248.503 92.32 249.157 92.6 249.903 92.6H250.603V94H231.003V92.6H231.703C232.357 92.6 232.963 92.3667 233.523 91.9C234.083 91.34 234.55 90.6867 234.923 89.94C235.39 89.1 235.717 88.26 235.903 87.42C236.09 86.4867 236.183 85.6467 236.183 84.9V10.28C236.183 9.62666 236.09 8.88 235.903 8.04C235.717 7.2 235.437 6.40666 235.063 5.65999C234.69 4.91333 234.223 4.30666 233.663 3.83999C233.103 3.27999 232.45 2.99999 231.703 2.99999H231.003V1.6H250.603V2.99999H249.903C249.157 2.99999 248.503 3.27999 247.943 3.83999C247.383 4.30666 246.917 4.91333 246.543 5.65999C246.263 6.40666 246.03 7.2 245.843 8.04C245.657 8.88 245.563 9.62666 245.563 10.28V41.92H290.363V10.28C290.363 9.62666 290.27 8.88 290.083 8.04C289.897 7.2 289.617 6.40666 289.243 5.65999C288.87 4.91333 288.403 4.30666 287.843 3.83999C287.283 3.27999 286.63 2.99999 285.883 2.99999H285.183V1.6H304.783V2.99999H304.083C303.337 2.99999 302.683 3.27999 302.123 3.83999C301.563 4.30666 301.097 4.91333 300.723 5.65999C300.443 6.40666 300.21 7.2 300.023 8.04C299.837 8.88 299.743 9.62666 299.743 10.28V84.9C299.743 85.6467 299.837 86.4867 300.023 87.42C300.303 88.26 300.63 89.0533 301.003 89.8C301.377 90.5467 301.797 91.2 302.263 91.76C302.823 92.32 303.43 92.6 304.083 92.6H304.783V94H285.183V92.6ZM319.973 1.6H339.993V2.99999H339.293C338.64 2.99999 338.033 3.27999 337.473 3.83999C336.913 4.30666 336.447 4.91333 336.073 5.65999C335.7 6.31333 335.373 7.10666 335.093 8.04C334.907 8.88 334.813 9.62666 334.813 10.28V84.9C334.813 85.6467 334.907 86.4867 335.093 87.42C335.28 88.26 335.56 89.0533 335.933 89.8C336.4 90.5467 336.867 91.2 337.333 91.76C337.893 92.32 338.547 92.6 339.293 92.6H339.993V94H319.973V92.6H320.673C321.42 92.6 322.073 92.3667 322.633 91.9C323.193 91.34 323.66 90.6867 324.033 89.94C324.5 89.1 324.827 88.26 325.013 87.42C325.2 86.4867 325.293 85.6467 325.293 84.9V10.28C325.293 9.62666 325.2 8.88 325.013 8.04C324.827 7.2 324.5 6.40666 324.033 5.65999C323.66 4.91333 323.193 4.30666 322.633 3.83999C322.073 3.27999 321.42 2.99999 320.673 2.99999H319.973V1.6ZM58 209.22C58 213.887 57.0667 217.9 55.2 221.26C53.3333 224.527 50.9067 227.187 47.92 229.24C45.0267 231.293 41.7133 232.787 37.98 233.72C34.34 234.653 30.7 235.12 27.06 235.12C23.3267 235.12 20.1067 234.747 17.4 234C14.6933 233.253 12.22 232.553 9.98 231.9C8.48667 231.433 7.13333 231.06 5.92 230.78C4.70667 230.407 3.49333 230.22 2.28 230.22V214.26H3.68C3.68 217.807 4.56667 220.653 6.34 222.8C8.20667 224.853 10.3533 226.44 12.78 227.56C15.2067 228.68 17.6333 229.427 20.06 229.8C22.4867 230.08 24.26 230.22 25.38 230.22C29.3933 230.22 32.8467 229.66 35.74 228.54C38.6333 227.327 41.0133 225.787 42.88 223.92C44.7467 221.96 46.1 219.813 46.94 217.48C47.8733 215.147 48.34 212.767 48.34 210.34C48.34 207.26 47.6867 204.693 46.38 202.64C45.0733 200.493 43.3467 198.627 41.2 197.04C39.1467 195.453 36.7667 194.1 34.06 192.98C31.3533 191.86 28.6 190.74 25.8 189.62C22.6267 188.407 19.5 187.147 16.42 185.84C13.34 184.533 10.5867 182.947 8.16 181.08C5.73333 179.12 3.77333 176.833 2.28 174.22C0.786667 171.513 0.0400003 168.2 0.0400003 164.28C0.0400003 160.173 0.833334 156.627 2.42 153.64C4.00667 150.56 6.10667 148.04 8.72 146.08C11.4267 144.12 14.46 142.673 17.82 141.74C21.2733 140.713 24.7733 140.2 28.32 140.2C30.7467 140.2 33.0333 140.387 35.18 140.76C37.3267 141.04 39.38 141.413 41.34 141.88C42.9267 142.253 44.4667 142.58 45.96 142.86C47.4533 143.047 48.9 143.14 50.3 143.14V157.56H48.9C48.7133 152.707 46.8 149.44 43.16 147.76C39.52 145.987 34.48 145.1 28.04 145.1C24.3067 145.1 21.2267 145.753 18.8 147.06C16.4667 148.273 14.6 149.813 13.2 151.68C11.8 153.453 10.82 155.413 10.26 157.56C9.79333 159.613 9.56 161.433 9.56 163.02C9.56 165.633 10.12 167.873 11.24 169.74C12.4533 171.607 14.04 173.24 16 174.64C17.96 176.04 20.2 177.3 22.72 178.42C25.3333 179.54 28.04 180.613 30.84 181.64C34.0133 182.853 37.2333 184.16 40.5 185.56C43.7667 186.96 46.66 188.687 49.18 190.74C51.7933 192.793 53.8933 195.313 55.48 198.3C57.16 201.287 58 204.927 58 209.22ZM72.9328 232.6H73.6328C74.3795 232.6 75.0328 232.367 75.5928 231.9C76.1528 231.34 76.6195 230.687 76.9928 229.94C77.4595 229.193 77.7861 228.4 77.9728 227.56C78.2528 226.72 78.3928 225.927 78.3928 225.18V150.28C78.3928 149.627 78.2528 148.88 77.9728 148.04C77.7861 147.2 77.4595 146.407 76.9928 145.66C76.6195 144.913 76.1528 144.307 75.5928 143.84C75.0328 143.28 74.3795 143 73.6328 143H72.9328V141.6H126.833V154.62H125.433C125.246 152.473 124.406 150.607 122.913 149.02C121.419 147.34 119.086 146.5 115.913 146.5H87.7728V181.92H111.013C113.159 181.92 114.933 181.267 116.333 179.96C117.826 178.653 118.573 177.113 118.573 175.34H119.973V192.84H118.573C118.573 191.16 117.873 189.713 116.473 188.5C115.073 187.287 113.253 186.68 111.013 186.68H87.7728V229.1H118.433C120.206 229.1 121.746 228.68 123.053 227.84C124.359 227 125.433 226.02 126.273 224.9C127.206 223.687 127.859 222.427 128.233 221.12C128.699 219.72 128.933 218.553 128.933 217.62H130.333V234H72.9328V232.6ZM158.582 232.6H159.282V234H143.742V232.6H144.442C145.095 232.6 145.702 232.32 146.262 231.76C146.915 231.2 147.429 230.547 147.802 229.8C148.175 229.053 148.455 228.26 148.642 227.42C148.922 226.487 149.062 225.647 149.062 224.9V150.28C149.062 149.627 148.969 148.88 148.782 148.04C148.689 147.2 148.455 146.407 148.082 145.66C147.709 144.913 147.195 144.307 146.542 143.84C145.889 143.28 145.095 143 144.162 143H143.462V141.6H157.602L208.422 221.68V150.28C208.422 149.627 208.282 148.88 208.002 148.04C207.815 147.2 207.489 146.407 207.022 145.66C206.649 144.913 206.182 144.307 205.622 143.84C205.062 143.28 204.409 143 203.662 143H202.962V141.6H218.642V143H217.942C217.195 143 216.542 143.28 215.982 143.84C215.422 144.307 214.909 144.913 214.442 145.66C214.069 146.407 213.789 147.2 213.602 148.04C213.415 148.88 213.322 149.627 213.322 150.28V234H204.642L153.962 153.64V224.9C153.962 225.647 154.055 226.487 154.242 227.42C154.429 228.26 154.709 229.053 155.082 229.8C155.549 230.547 156.062 231.2 156.622 231.76C157.182 232.32 157.835 232.6 158.582 232.6ZM291.492 209.22C291.492 213.887 290.559 217.9 288.692 221.26C286.826 224.527 284.399 227.187 281.412 229.24C278.519 231.293 275.206 232.787 271.472 233.72C267.832 234.653 264.192 235.12 260.552 235.12C256.819 235.12 253.599 234.747 250.892 234C248.186 233.253 245.712 232.553 243.472 231.9C241.979 231.433 240.626 231.06 239.412 230.78C238.199 230.407 236.986 230.22 235.772 230.22V214.26H237.172C237.172 217.807 238.059 220.653 239.832 222.8C241.699 224.853 243.846 226.44 246.272 227.56C248.699 228.68 251.126 229.427 253.552 229.8C255.979 230.08 257.752 230.22 258.872 230.22C262.886 230.22 266.339 229.66 269.232 228.54C272.126 227.327 274.506 225.787 276.372 223.92C278.239 221.96 279.592 219.813 280.432 217.48C281.366 215.147 281.832 212.767 281.832 210.34C281.832 207.26 281.179 204.693 279.872 202.64C278.566 200.493 276.839 198.627 274.692 197.04C272.639 195.453 270.259 194.1 267.552 192.98C264.846 191.86 262.092 190.74 259.292 189.62C256.119 188.407 252.992 187.147 249.912 185.84C246.832 184.533 244.079 182.947 241.652 181.08C239.226 179.12 237.266 176.833 235.772 174.22C234.279 171.513 233.532 168.2 233.532 164.28C233.532 160.173 234.326 156.627 235.912 153.64C237.499 150.56 239.599 148.04 242.212 146.08C244.919 144.12 247.952 142.673 251.312 141.74C254.766 140.713 258.266 140.2 261.812 140.2C264.239 140.2 266.526 140.387 268.672 140.76C270.819 141.04 272.872 141.413 274.832 141.88C276.419 142.253 277.959 142.58 279.452 142.86C280.946 143.047 282.392 143.14 283.792 143.14V157.56H282.392C282.206 152.707 280.292 149.44 276.652 147.76C273.012 145.987 267.972 145.1 261.532 145.1C257.799 145.1 254.719 145.753 252.292 147.06C249.959 148.273 248.092 149.813 246.692 151.68C245.292 153.453 244.312 155.413 243.752 157.56C243.286 159.613 243.052 161.433 243.052 163.02C243.052 165.633 243.612 167.873 244.732 169.74C245.946 171.607 247.532 173.24 249.492 174.64C251.452 176.04 253.692 177.3 256.212 178.42C258.826 179.54 261.532 180.613 264.332 181.64C267.506 182.853 270.726 184.16 273.992 185.56C277.259 186.96 280.152 188.687 282.672 190.74C285.286 192.793 287.386 195.313 288.972 198.3C290.652 201.287 291.492 204.927 291.492 209.22ZM352.796 232.6H353.496C355.736 232.6 356.856 231.573 356.856 229.52C356.856 228.773 356.716 227.98 356.436 227.14L343.836 193.12H319.336L307.156 226.58C306.876 227.327 306.736 228.027 306.736 228.68C306.736 229.893 307.062 230.873 307.716 231.62C308.369 232.273 309.069 232.6 309.816 232.6H310.516V234H294.976V232.6H295.676C296.889 232.6 298.056 231.9 299.176 230.5C300.389 229.007 301.369 227.28 302.116 225.32L334.176 139.92L365.536 224.48C366.189 226.347 367.076 228.167 368.196 229.94C369.409 231.713 370.949 232.6 372.816 232.6H373.516V234H352.796V232.6ZM320.736 188.36H342.296L331.516 159.1L320.736 188.36ZM407.325 232.6H408.025V234H388.145V232.6H388.845C389.592 232.6 390.245 232.32 390.805 231.76C391.365 231.2 391.832 230.547 392.205 229.8C392.672 229.053 392.999 228.26 393.185 227.42C393.372 226.487 393.465 225.647 393.465 224.9V146.78H377.225C375.732 146.78 374.425 147.107 373.305 147.76C372.185 148.413 371.252 149.253 370.505 150.28C369.759 151.213 369.199 152.287 368.825 153.5C368.452 154.62 368.265 155.74 368.265 156.86H366.865V141.6H429.725V156.86H428.325C428.325 155.74 428.139 154.62 427.765 153.5C427.392 152.287 426.832 151.213 426.085 150.28C425.339 149.253 424.405 148.413 423.285 147.76C422.165 147.107 420.859 146.78 419.365 146.78H402.845V224.9C402.845 225.647 402.939 226.487 403.125 227.42C403.312 228.26 403.592 229.053 403.965 229.8C404.432 230.547 404.899 231.2 405.365 231.76C405.925 232.32 406.579 232.6 407.325 232.6ZM440.954 141.6H460.974V143H460.274C459.62 143 459.014 143.28 458.454 143.84C457.894 144.307 457.427 144.913 457.054 145.66C456.68 146.313 456.354 147.107 456.074 148.04C455.887 148.88 455.794 149.627 455.794 150.28V224.9C455.794 225.647 455.887 226.487 456.074 227.42C456.26 228.26 456.54 229.053 456.914 229.8C457.38 230.547 457.847 231.2 458.314 231.76C458.874 232.32 459.527 232.6 460.274 232.6H460.974V234H440.954V232.6H441.654C442.4 232.6 443.054 232.367 443.614 231.9C444.174 231.34 444.64 230.687 445.014 229.94C445.48 229.1 445.807 228.26 445.994 227.42C446.18 226.487 446.274 225.647 446.274 224.9V150.28C446.274 149.627 446.18 148.88 445.994 148.04C445.807 147.2 445.48 146.407 445.014 145.66C444.64 144.913 444.174 144.307 443.614 143.84C443.054 143.28 442.4 143 441.654 143H440.954V141.6ZM524.617 140.2C531.897 140.2 538.43 141.507 544.217 144.12C550.003 146.64 554.903 150.093 558.917 154.48C563.023 158.773 566.15 163.813 568.297 169.6C570.537 175.293 571.657 181.267 571.657 187.52C571.657 194.52 570.35 200.96 567.737 206.84C565.217 212.72 561.717 217.76 557.237 221.96C552.757 226.16 547.53 229.473 541.557 231.9C535.677 234.233 529.377 235.4 522.657 235.4C515.47 235.4 508.983 234.093 503.197 231.48C497.503 228.867 492.65 225.413 488.637 221.12C484.717 216.827 481.683 211.88 479.537 206.28C477.39 200.68 476.317 194.847 476.317 188.78C476.317 182.807 477.39 176.927 479.537 171.14C481.683 165.26 484.81 160.033 488.917 155.46C493.117 150.887 498.203 147.2 504.177 144.4C510.15 141.6 516.963 140.2 524.617 140.2ZM524.477 230.5C530.73 230.22 536.19 228.82 540.857 226.3C545.617 223.687 549.583 220.42 552.757 216.5C555.93 212.487 558.263 208.1 559.757 203.34C561.343 198.58 562.137 193.867 562.137 189.2C562.137 184.067 561.203 178.887 559.337 173.66C557.47 168.433 554.81 163.72 551.357 159.52C547.903 155.227 543.75 151.773 538.897 149.16C534.137 146.453 528.77 145.1 522.797 145.1C517.01 145.1 511.83 146.407 507.257 149.02C502.683 151.54 498.763 154.807 495.497 158.82C492.323 162.833 489.897 167.313 488.217 172.26C486.537 177.207 485.697 182.06 485.697 186.82C485.697 191.953 486.677 197.133 488.637 202.36C490.597 207.493 493.303 212.16 496.757 216.36C500.21 220.56 504.27 223.967 508.937 226.58C513.697 229.193 518.877 230.5 524.477 230.5ZM601.641 232.6H602.341V234H586.801V232.6H587.501C588.154 232.6 588.761 232.32 589.321 231.76C589.974 231.2 590.487 230.547 590.861 229.8C591.234 229.053 591.514 228.26 591.701 227.42C591.981 226.487 592.121 225.647 592.121 224.9V150.28C592.121 149.627 592.027 148.88 591.841 148.04C591.747 147.2 591.514 146.407 591.141 145.66C590.767 144.913 590.254 144.307 589.601 143.84C588.947 143.28 588.154 143 587.221 143H586.521V141.6H600.661L651.481 221.68V150.28C651.481 149.627 651.341 148.88 651.061 148.04C650.874 147.2 650.547 146.407 650.081 145.66C649.707 144.913 649.241 144.307 648.681 143.84C648.121 143.28 647.467 143 646.721 143H646.021V141.6H661.701V143H661.001C660.254 143 659.601 143.28 659.041 143.84C658.481 144.307 657.967 144.913 657.501 145.66C657.127 146.407 656.847 147.2 656.661 148.04C656.474 148.88 656.381 149.627 656.381 150.28V234H647.701L597.021 153.64V224.9C597.021 225.647 597.114 226.487 597.301 227.42C597.487 228.26 597.767 229.053 598.141 229.8C598.607 230.547 599.121 231.2 599.681 231.76C600.241 232.32 600.894 232.6 601.641 232.6Z" fill="#EFE7D2"/>
</svg>
